<svg width="51" height="45" viewBox="0 0 51 45" fill="none" xmlns="http://www.w3.org/2000/svg">
<path d="M14.5581 7.47583L14.4867 2.01013C14.4757 1.17517 15.1514 0.494019 15.9863 0.494019H34.8608C35.6903 0.494019 36.3605 1.16418 36.3605 1.99365V7.45386H32.5153V4.33923H18.3649L18.4033 7.43188L14.5581 7.47583Z" fill="#8E6620"/>
<path d="M19.101 9.5083H13.7341C13.6407 9.5083 13.5583 9.4314 13.5583 9.33252V7.56372C13.5583 7.47034 13.6353 7.38794 13.7341 7.38794H19.101C19.1943 7.38794 19.2767 7.46484 19.2767 7.56372V9.33252C19.2767 9.4314 19.1943 9.5083 19.101 9.5083ZM37.1075 9.5083H31.7682C31.6638 9.5083 31.5814 9.4259 31.5814 9.32153V7.58569C31.5814 7.48132 31.6638 7.39893 31.7682 7.39893H37.1075C37.2119 7.39893 37.2943 7.48132 37.2943 7.58569V9.32153C37.2998 9.4259 37.2119 9.5083 37.1075 9.5083Z" fill="#FFB000"/>
<path d="M45.9846 44.4558H4.97266C2.70398 44.4558 0.86377 42.6156 0.86377 40.3469V13.4084C0.86377 11.1398 2.70398 9.29956 4.97266 9.29956H45.9791C48.2478 9.29956 50.088 11.1398 50.088 13.4084V40.3469C50.0935 42.6156 48.2533 44.4558 45.9846 44.4558Z" fill="#8E6620"/>
<path d="M9.16821 9.30603L13.5627 9.2934L13.6639 44.4112L9.2694 44.4238L9.16821 9.30603ZM37.2988 9.30603L41.6933 9.2934L41.7945 44.4112L37.4 44.4238L37.2988 9.30603Z" fill="#FFB000"/>
</svg>
