<svg width="47" height="45" viewBox="0 0 47 45" fill="none" xmlns="http://www.w3.org/2000/svg">
<path d="M36.0435 3.91492H2.38721C2.15283 3.91492 1.96533 3.91492 1.73096 3.96179V43.3837C1.96533 43.3837 2.15283 43.4305 2.38721 43.4305H36.0435C41.1997 43.4305 45.3716 43.4305 45.3716 34.9462V12.4462C45.4185 3.91492 41.1997 3.91492 36.0435 3.91492Z" fill="#FF5855"/>
<g opacity="0.5">
<path d="M36.0435 3.91492H2.38721C2.15283 3.91492 1.96533 3.91492 1.73096 3.96179V43.3837C1.96533 43.3837 2.15283 43.4305 2.38721 43.4305H36.0435C41.1997 43.4305 45.3716 43.4305 45.3716 34.9462V12.4462C45.4185 3.91492 41.1997 3.91492 36.0435 3.91492Z" fill="#581166"/>
</g>
<path d="M36.0435 44.2274H2.38721C2.19971 44.2274 1.96533 44.2274 1.77783 44.1805C1.30908 44.1337 0.887207 43.7587 0.887207 43.2899V3.91492C0.887207 3.44617 1.26221 3.07117 1.73096 3.02429H1.82471C2.01221 3.02429 2.19971 2.97742 2.38721 2.97742H36.0435C41.0591 2.97742 46.2622 2.97742 46.2622 12.3524V34.8524C46.2622 44.2274 41.106 44.2274 36.0435 44.2274ZM2.66846 42.493H36.0903C41.1997 42.493 44.5747 42.493 44.5747 34.8993V12.3993C44.5747 4.80554 41.1997 4.80554 36.0903 4.80554H2.66846V42.493Z" fill="#581166"/>
<path d="M36.0435 1.00867H2.38721C2.15283 1.00867 1.96533 1.00867 1.73096 1.05554V40.4774C1.96533 40.4774 2.15283 40.5243 2.38721 40.5243H36.0435C41.1997 40.5243 45.3716 40.5243 45.3716 32.0399V9.53992C45.4185 1.00867 41.1997 1.00867 36.0435 1.00867Z" fill="#FF5855"/>
<path d="M36.0435 41.3212H2.38721C2.19971 41.3212 2.01221 41.3212 1.82471 41.2743H1.73096C1.26221 41.2274 0.887207 40.8524 0.887207 40.3837V1.00867C0.887207 0.539917 1.26221 0.164917 1.73096 0.118042H1.82471C2.01221 0.118042 2.19971 0.071167 2.38721 0.071167H36.0435C41.0591 0.071167 46.2622 0.071167 46.2622 9.44617V31.9462C46.2622 41.3212 41.106 41.3212 36.0435 41.3212ZM2.66846 39.5868H36.0903C41.1997 39.5868 44.5747 39.5868 44.5747 31.993V9.49304C44.5747 1.89929 41.1997 1.89929 36.0903 1.89929H2.66846V39.5868Z" fill="#581166"/>
<path d="M40.1216 35.4618H37.0278C36.5591 35.4618 36.1372 35.0868 36.1372 34.5712C36.1372 34.1024 36.5122 33.6805 37.0278 33.6805H39.231V31.4774C39.231 31.0087 39.606 30.5868 40.1216 30.5868C40.6372 30.5868 41.0122 30.9618 41.0122 31.4774V34.5712C41.0122 35.0868 40.6372 35.4618 40.1216 35.4618Z" fill="#581166"/>
<path d="M30.606 35.4618H24.1841C23.7153 35.4618 23.2935 35.0868 23.2935 34.5712C23.2935 34.1024 23.6685 33.6805 24.1841 33.6805H30.606C31.0747 33.6805 31.4966 34.0555 31.4966 34.5712C31.4966 35.0868 31.1216 35.4618 30.606 35.4618ZM17.7153 35.4618H11.2935C10.8247 35.4618 10.4028 35.0868 10.4028 34.5712C10.4028 34.1024 10.7778 33.6805 11.2935 33.6805H17.7153C18.1841 33.6805 18.606 34.0555 18.606 34.5712C18.606 35.0868 18.231 35.4618 17.7153 35.4618Z" fill="#581166"/>
<path d="M4.82471 35.4618H1.73096C1.26221 35.4618 0.840332 35.0868 0.840332 34.5712V31.4774C0.840332 31.0087 1.21533 30.5868 1.73096 30.5868C2.24658 30.5868 2.62158 30.9618 2.62158 31.4774V33.6805H4.82471C5.29346 33.6805 5.71533 34.0555 5.71533 34.5712C5.71533 35.0868 5.34033 35.4618 4.82471 35.4618Z" fill="#581166"/>
<path d="M1.77783 24.9149C1.30908 24.9149 0.887207 24.5399 0.887207 24.0243V16.5243C0.887207 16.0555 1.26221 15.6337 1.77783 15.6337C2.29346 15.6337 2.66846 16.0087 2.66846 16.5243V24.0243C2.66846 24.493 2.24658 24.9149 1.77783 24.9149Z" fill="#581166"/>
<path d="M1.77783 9.91492C1.30908 9.91492 0.887207 9.53992 0.887207 9.02429V5.93054C0.887207 5.46179 1.26221 5.03992 1.77783 5.03992H4.87158C5.34033 5.03992 5.76221 5.41492 5.76221 5.93054C5.76221 6.39929 5.38721 6.82117 4.87158 6.82117H2.66846V9.02429C2.66846 9.49304 2.24658 9.91492 1.77783 9.91492Z" fill="#581166"/>
<path d="M30.606 6.82117H24.1841C23.7153 6.82117 23.2935 6.44617 23.2935 5.93054C23.2935 5.46179 23.6685 5.03992 24.1841 5.03992H30.606C31.0747 5.03992 31.4966 5.41492 31.4966 5.93054C31.4966 6.44617 31.1216 6.82117 30.606 6.82117ZM17.7153 6.82117H11.2935C10.8247 6.82117 10.4028 6.44617 10.4028 5.93054C10.4028 5.46179 10.7778 5.03992 11.2935 5.03992H17.7153C18.1841 5.03992 18.606 5.41492 18.606 5.93054C18.606 6.44617 18.231 6.82117 17.7153 6.82117Z" fill="#581166"/>
<path d="M40.1216 9.91492C39.6528 9.91492 39.231 9.53992 39.231 9.02429V6.82117H37.0278C36.5591 6.82117 36.1372 6.44617 36.1372 5.93054C36.1372 5.46179 36.5122 5.03992 37.0278 5.03992H40.1216C40.5903 5.03992 41.0122 5.41492 41.0122 5.93054V9.02429C41.0122 9.49304 40.6372 9.91492 40.1216 9.91492Z" fill="#581166"/>
<path d="M40.1216 24.9149C39.6528 24.9149 39.231 24.5399 39.231 24.0243V16.5243C39.231 16.0555 39.606 15.6337 40.1216 15.6337C40.6372 15.6337 41.0122 16.0087 41.0122 16.5243V24.0243C41.0122 24.493 40.6372 24.9149 40.1216 24.9149Z" fill="#581166"/>
<path d="M45.4185 25.8993H36.9341C34.5903 25.8993 32.6685 23.9774 32.6685 21.6337V18.868C32.6685 16.5243 34.5903 14.6024 36.9341 14.6024H45.4185C45.8872 14.6024 46.3091 14.9774 46.3091 15.493V25.0087C46.2622 25.4774 45.8872 25.8993 45.4185 25.8993ZM36.9341 16.3368C35.5278 16.3368 34.4028 17.4618 34.4028 18.868V21.6337C34.4028 23.0399 35.5278 24.1649 36.9341 24.1649H44.5278V16.3368H36.9341Z" fill="#581166"/>
<path d="M45.4185 15.4462H36.9341C35.0591 15.4462 33.5591 16.993 33.5591 18.8212V21.5868C33.5591 23.4618 35.106 24.9618 36.9341 24.9618H45.4185V15.4462Z" fill="#FFDA8E"/>
<path d="M45.4185 25.8993H36.9341C34.5903 25.8993 32.6685 23.9774 32.6685 21.6337V18.868C32.6685 16.5243 34.5903 14.6024 36.9341 14.6024H45.4185C45.8872 14.6024 46.3091 14.9774 46.3091 15.493V25.0087C46.2622 25.4774 45.8872 25.8993 45.4185 25.8993ZM36.9341 16.3368C35.5278 16.3368 34.4028 17.4618 34.4028 18.868V21.6337C34.4028 23.0399 35.5278 24.1649 36.9341 24.1649H44.5278V16.3368H36.9341Z" fill="#581166"/>
<path d="M38.1528 22.5243C39.4214 22.5243 40.4497 21.4959 40.4497 20.2274C40.4497 18.9589 39.4214 17.9305 38.1528 17.9305C36.8843 17.9305 35.856 18.9589 35.856 20.2274C35.856 21.4959 36.8843 22.5243 38.1528 22.5243Z" fill="white"/>
<path d="M38.1528 23.4149C36.4185 23.4149 34.9653 22.0087 34.9653 20.2274C34.9653 18.493 36.3716 17.0399 38.1528 17.0399C39.8872 17.0399 41.3403 18.4462 41.3403 20.2274C41.3403 22.0087 39.8872 23.4149 38.1528 23.4149ZM38.1528 18.8212C37.356 18.8212 36.7466 19.4774 36.7466 20.2274C36.7466 21.0243 37.4028 21.6337 38.1528 21.6337C38.9497 21.6337 39.5591 20.9774 39.5591 20.2274C39.5591 19.4305 38.9497 18.8212 38.1528 18.8212Z" fill="#581166"/>
</svg>
