<svg width="59" height="47" viewBox="0 0 59 47" fill="none" xmlns="http://www.w3.org/2000/svg">
<path d="M30.375 23.625C24 23.625 18.375 18.375 18.375 11.625C18.375 4.875 23.625 0 30.375 0C36.75 0 42.375 5.25 42.375 12C42.375 18.75 36.75 23.625 30.375 23.625ZM30.375 2.625C25.5 2.625 21.375 6.75 21.375 11.625C21.375 16.5 25.125 20.625 30.375 20.625C35.625 20.625 39.375 16.5 39.375 11.625C39.375 6.75 35.25 2.625 30.375 2.625Z" fill="#D72822"/>
<path d="M49.125 44.625C49.125 32.25 40.5 22.5 30 22.5C19.5 22.5 10.875 32.25 10.875 44.625H49.125Z" fill="#F4B1B2"/>
<path d="M49.125 46.125H9V44.625C9 31.5 18.375 21 29.625 21C40.875 21 50.25 31.5 50.25 44.25V45.75L49.125 46.125ZM12 43.125H47.625C47.25 32.625 39.375 24 30 24C20.25 24 12.75 32.625 12 43.125ZM42 23.25C41.25 23.25 40.5 22.5 40.5 21.75C40.5 21 41.25 20.25 42 20.25C45.75 20.25 49.125 17.25 49.125 13.125C49.125 10.125 47.25 7.49999 44.25 6.37499C43.5 5.99999 43.125 5.24999 43.5 4.49999C43.875 3.74999 44.625 3.37499 45.375 3.74999C49.5 4.87499 52.125 8.62499 52.125 13.125C51.75 18.75 47.25 23.25 42 23.25Z" fill="#D72822"/>
<path d="M57 41.25H53.625C52.875 41.25 52.125 40.5 52.125 39.75C52.125 39 52.875 38.25 53.625 38.25H55.5C54.75 30 48.75 23.625 41.625 23.625C40.875 23.625 40.125 22.875 40.125 22.125C40.125 21.375 40.875 20.625 41.625 20.625C51 20.625 58.5 29.25 58.5 39.75V41.25H57Z" fill="#D72822"/>
<path d="M16.875 23.2721C16.5 23.2721 16.5 23.2721 16.875 23.2721C14.25 23.2721 11.625 22.5221 9.75 20.6471C7.875 18.7721 7.125 16.1471 7.125 13.5221C7.125 9.39711 9.75 5.64711 13.875 4.14711C14.625 3.77211 15.375 4.14711 15.75 4.89711C16.125 5.64711 15.75 6.39711 15 6.77211C11.625 7.89711 9.75 10.5221 9.75 13.5221C9.75 15.3971 10.5 17.2721 11.625 18.3971C12.75 19.8971 14.625 20.2721 16.5 20.6471C17.625 20.6471 18 21.3971 18 22.1471C18 22.8971 17.625 23.2721 16.875 23.2721Z" fill="#D72822"/>
<path d="M4.5 41.2721H0V39.7721C0 29.2721 7.5 21.0221 16.875 21.0221C17.625 21.0221 18.375 21.7721 18.375 22.5221C18.375 23.2721 17.625 24.0221 16.875 24.0221C9.75 24.0221 3.75 30.3971 3 38.6471H4.875C5.625 38.6471 6.375 39.3971 6.375 40.1471C6 40.5221 5.625 41.2721 4.5 41.2721Z" fill="#D72822"/>
</svg>
