<svg width="60" height="60" viewBox="0 0 60 60" fill="none" xmlns="http://www.w3.org/2000/svg">
<path d="M38.6007 27.3994L33.7501 32.3363V18.7125C33.7503 18.2249 33.6545 17.742 33.468 17.2915C33.2815 16.841 33.0081 16.4316 32.6633 16.0868C32.3185 15.742 31.9091 15.4686 31.4586 15.2821C31.0081 15.0956 30.5252 14.9998 30.0376 15H29.9626C29.475 14.9998 28.9921 15.0956 28.5416 15.2821C28.0911 15.4686 27.6817 15.742 27.3369 16.0868C26.9921 16.4316 26.7187 16.841 26.5322 17.2915C26.3457 17.742 26.2499 18.2249 26.2501 18.7125V31.7681L25.7626 31.6894L21.5476 27.5138C20.912 26.855 20.0658 26.4394 19.1559 26.339C18.246 26.2387 17.3296 26.4599 16.5657 26.9644C16.1219 27.2753 15.7518 27.68 15.4816 28.1497C15.2114 28.6195 15.0477 29.1428 15.0021 29.6828C14.9565 30.2228 15.0301 30.7662 15.2177 31.2746C15.4052 31.783 15.7022 32.244 16.0876 32.625L27.4763 43.905C28.1841 44.6031 29.1382 44.9946 30.1323 44.9946C31.1264 44.9946 32.0805 44.6031 32.7882 43.905L43.9145 32.655C44.2631 32.3113 44.54 31.9018 44.7289 31.4502C44.9179 30.9986 45.0152 30.5139 45.0152 30.0244C45.0152 29.5348 44.9179 29.0502 44.7289 28.5986C44.54 28.1469 44.2631 27.7374 43.9145 27.3938C43.2062 26.6953 42.2512 26.3043 41.2564 26.3053C40.2617 26.3064 39.3075 26.6995 38.6007 27.3994Z" fill="#0E0578"/>
<path d="M30 0C24.0666 0 18.2664 1.75947 13.3329 5.05591C8.39943 8.35235 4.55426 13.0377 2.28363 18.5195C0.0129986 24.0013 -0.581101 30.0333 0.576455 35.8527C1.73401 41.6721 4.59123 47.0176 8.78681 51.2132C12.9824 55.4088 18.3279 58.266 24.1473 59.4236C29.9667 60.5811 35.9987 59.987 41.4805 57.7164C46.9623 55.4458 51.6477 51.6006 54.9441 46.6671C58.2405 41.7336 60 35.9334 60 30C60 22.0435 56.8393 14.4129 51.2132 8.7868C45.5871 3.16071 37.9565 0 30 0ZM30 52.5C25.5499 52.5 21.1998 51.1804 17.4997 48.7081C13.7996 46.2357 10.9157 42.7217 9.21272 38.6104C7.50975 34.499 7.06418 29.975 7.93234 25.6105C8.80051 21.2459 10.9434 17.2368 14.0901 14.0901C17.2368 10.9434 21.2459 8.8005 25.6105 7.93233C29.9751 7.06416 34.4991 7.50974 38.6104 9.21271C42.7217 10.9157 46.2357 13.7996 48.7081 17.4997C51.1804 21.1998 52.5 25.5499 52.5 30C52.4936 35.9654 50.121 41.6846 45.9028 45.9028C41.6846 50.121 35.9654 52.4936 30 52.5Z" fill="#0E0578"/>
</svg>
