<svg width="52" height="51" viewBox="0 0 52 51" fill="none" xmlns="http://www.w3.org/2000/svg">
<path d="M39.0625 25.0625C45.7935 25.0625 51.25 19.606 51.25 12.875C51.25 6.14403 45.7935 0.6875 39.0625 0.6875C32.3315 0.6875 26.875 6.14403 26.875 12.875C26.875 19.606 32.3315 25.0625 39.0625 25.0625Z" fill="#A3CEF1"/>
<path d="M47.5 11.3188C47.275 10.1094 46.8063 8.98438 46.1313 8C45.5406 8.10313 44.9125 7.925 44.4625 7.475C44.0125 7.025 43.8344 6.39688 43.9375 5.80625C42.9625 5.13125 41.8375 4.6625 40.6187 4.4375C40.2719 4.925 39.7094 5.24375 39.0625 5.24375C38.4156 5.24375 37.8531 4.925 37.5063 4.4375C36.2969 4.6625 35.1719 5.13125 34.1875 5.80625C34.2906 6.39688 34.1125 7.025 33.6625 7.475C33.2125 7.925 32.5844 8.10313 31.9937 8C31.3187 8.975 30.85 10.1 30.625 11.3188C31.1125 11.6656 31.4313 12.2281 31.4313 12.875C31.4313 13.5219 31.1125 14.0844 30.625 14.4312C30.85 15.6406 31.3187 16.7656 31.9937 17.75C32.5844 17.6469 33.2125 17.825 33.6625 18.275C34.1219 18.7344 34.2906 19.3531 34.1875 19.9438C35.1625 20.6188 36.2875 21.0875 37.5063 21.3125C37.8531 20.825 38.4156 20.5062 39.0625 20.5062C39.7094 20.5062 40.2719 20.825 40.6187 21.3125C41.8281 21.0875 42.9531 20.6188 43.9375 19.9438C43.8344 19.3531 44.0125 18.725 44.4625 18.275C44.9219 17.8156 45.5406 17.6469 46.1313 17.75C46.8063 16.775 47.275 15.65 47.5 14.4312C47.0125 14.0844 46.6937 13.5219 46.6937 12.875C46.6937 12.2281 47.0125 11.6656 47.5 11.3188Z" fill="#274C77"/>
<path d="M39.0625 17.5625C41.6513 17.5625 43.75 15.4638 43.75 12.875C43.75 10.2862 41.6513 8.1875 39.0625 8.1875C36.4737 8.1875 34.375 10.2862 34.375 12.875C34.375 15.4638 36.4737 17.5625 39.0625 17.5625Z" fill="#F5DD90"/>
<path d="M19.9187 31.6625L17.1062 32.8719C16.1593 33.275 15.0905 33.275 14.153 32.8719L11.3405 31.6625C9.9624 31.0719 9.07178 29.7125 9.07178 28.2125V23.1875C9.07178 20.0844 11.5937 17.5625 14.6968 17.5625H16.5718C19.6749 17.5625 22.1968 20.0844 22.1968 23.1875V28.2125C22.1968 29.7125 21.3062 31.0719 19.928 31.6625H19.9187Z" fill="#DDA15E"/>
<path d="M27.9437 37.25C26.2375 35.5156 23.8656 34.4375 21.25 34.4375H18.4375C18.4375 35.9937 17.1812 37.25 15.625 37.25C14.0687 37.25 12.8125 35.9937 12.8125 34.4375H10C4.825 34.4375 0.625 38.6375 0.625 43.8125V50.375H21.25L25 37.25H27.9437Z" fill="#274C77"/>
<path d="M6.25 24.8094C5.97813 24.9687 5.65 25.0625 5.3125 25.0625C4.28125 25.0625 3.4375 24.2188 3.4375 23.1875C3.4375 22.1562 4.28125 21.3125 5.3125 21.3125C5.70625 21.3125 6.07188 21.4344 6.38125 21.65" fill="#274C77"/>
<path d="M24.9999 24.8094C25.2718 24.9687 25.5999 25.0625 25.9374 25.0625C26.9687 25.0625 27.8124 24.2188 27.8124 23.1875C27.8124 22.1562 26.9687 21.3125 25.9374 21.3125C25.5437 21.3125 25.178 21.4344 24.8687 21.65" fill="#274C77"/>
<path d="M12.8125 32.2906L14.1438 32.8625C15.0906 33.275 16.1594 33.275 17.1062 32.8625L18.4375 32.2906V34.4375C18.4375 35.9937 17.1812 37.25 15.625 37.25C14.0688 37.25 12.8125 35.9937 12.8125 34.4375V32.2906Z" fill="#BC6C25"/>
<path d="M21.25 50.375L25 37.25H45.625L41.875 50.375" fill="#8B8C89"/>
<path d="M21.6156 20.7312C21.0812 20.5156 20.4625 20.375 19.6844 20.375C15.625 20.375 15.625 24.125 11.5562 24.125C10.4969 24.125 9.70937 23.8719 9.0625 23.4969V23.1875C9.0625 20.0844 11.5844 17.5625 14.6875 17.5625H16.5625C18.7844 17.5625 20.7062 18.8562 21.6156 20.7312Z" fill="#274C77"/>
<path d="M22.1875 27.5V23.1875C22.1875 20.0844 19.6656 17.5625 16.5625 17.5625H14.6875C11.5844 17.5625 9.0625 20.0844 9.0625 23.1875V26.9375H7.1875C6.67187 26.9375 6.25 26.5156 6.25 26V23.1875C6.25 18.0125 10.45 13.8125 15.625 13.8125C18.2125 13.8125 20.5562 14.8625 22.2531 16.5594C23.95 18.2562 25 20.6 25 23.1875V26.1687C25 26.6187 24.6813 27.0031 24.25 27.0875L22.1875 27.5Z" fill="#E7ECEF"/>
<path d="M33.4375 42.875C33.9531 42.875 34.375 43.2969 34.375 43.8125C34.375 44.3281 33.9531 44.75 33.4375 44.75V42.875Z" fill="#A3CEF1"/>
<path d="M36.2688 24.7437C36.2594 24.8469 36.25 24.9594 36.25 25.0625C36.25 26.6187 37.5063 27.875 39.0625 27.875C40.6187 27.875 41.875 26.6187 41.875 25.0625C41.875 24.9594 41.8656 24.8469 41.8562 24.7437C40.9562 24.95 40.0281 25.0625 39.0625 25.0625C38.0969 25.0625 37.1688 24.95 36.2688 24.7437Z" fill="#6096BA"/>
<path d="M35.3125 32.5625C36.348 32.5625 37.1875 31.723 37.1875 30.6875C37.1875 29.652 36.348 28.8125 35.3125 28.8125C34.277 28.8125 33.4375 29.652 33.4375 30.6875C33.4375 31.723 34.277 32.5625 35.3125 32.5625Z" fill="#6096BA"/>
<path d="M30.625 36.3125C31.6605 36.3125 32.5 35.473 32.5 34.4375C32.5 33.402 31.6605 32.5625 30.625 32.5625C29.5895 32.5625 28.75 33.402 28.75 34.4375C28.75 35.473 29.5895 36.3125 30.625 36.3125Z" fill="#6096BA"/>
<path d="M15.625 28.8125C15.5219 28.3063 15.85 27.8094 16.3563 27.7063L24.0625 26.1688V23.4875C24.0625 18.9969 20.6781 15.0688 16.2063 14.7688C11.2938 14.4406 7.1875 18.3406 7.1875 23.1875V26H9.0625V27.875H7.1875C6.15625 27.875 5.3125 27.0313 5.3125 26V23.4875C5.3125 18.125 9.2875 13.4188 14.6313 12.9219C20.7625 12.3406 25.9375 17.1688 25.9375 23.1875V26.1688C25.9375 27.0594 25.3094 27.8281 24.4281 28.0063L16.7219 29.5438C16.2156 29.6469 15.7187 29.3188 15.6156 28.8125H15.625Z" fill="#6096BA"/>
<path d="M15.625 50.375H13.75V48.5C13.75 47.9844 13.3281 47.5625 12.8125 47.5625H6.25C5.73437 47.5625 5.3125 47.1406 5.3125 46.625V42.875C5.3125 42.6219 5.41562 42.3875 5.58437 42.2094L6.79375 41C7.15937 40.6344 7.75 40.6344 8.11562 41C8.48125 41.3656 8.48125 41.9562 8.11562 42.3219L7.17812 43.2594V45.6875H12.8031C14.3594 45.6875 15.6156 46.9437 15.6156 48.5V50.375H15.625Z" fill="#6096BA"/>
</svg>
