<svg width="60" height="60" viewBox="0 0 60 60" fill="none" xmlns="http://www.w3.org/2000/svg">
<path d="M29 58C45.0163 58 58 45.0163 58 29C58 12.9837 45.0163 0 29 0C12.9837 0 0 12.9837 0 29C0 45.0163 12.9837 58 29 58Z" fill="#FD8469"/>
<path d="M37 40.2277C37 40.5522 36.956 40.9231 36.736 41.1086C36.208 41.665 35.328 41.7113 34.756 41.1549L34.448 40.8768C34.844 41.2477 34.844 41.8968 34.492 42.3141L33.524 43.3341C33.172 43.705 32.556 43.705 32.204 43.3341L31.588 42.685C31.984 43.1022 31.984 43.8441 31.588 44.215L31.06 44.725C30.664 45.0959 30.048 45.0959 29.652 44.725L29.168 44.215C29.432 44.4932 29.432 44.9568 29.168 45.235L28.64 45.7914C28.376 46.0695 27.936 46.0695 27.672 45.7914L26.44 45.0959C26.44 45.0959 26.396 45.0959 26.352 45.0495L25.912 43.705C25.824 43.4268 25.912 43.1022 26.088 42.9168C26.484 42.4995 26.484 41.8968 26.088 41.4795L25.516 40.8768C25.164 40.5058 24.636 40.4595 24.24 40.784L23.888 41.1086L24.372 40.5986C24.856 40.1349 24.856 39.3467 24.372 38.8367L23.932 38.3731C23.448 37.8631 22.744 37.8631 22.26 38.3731L21.688 38.9758C22.084 38.5586 22.084 37.8631 21.688 37.4458L20.984 36.704C20.588 36.2867 19.972 36.2867 19.576 36.6576L17.86 38.234C18.08 37.9095 18.036 37.4922 17.816 37.214L17.288 36.6576C16.98 36.3331 16.54 36.3331 16.232 36.6576L16.144 36.7504C15.704 36.3331 15.308 36.0085 15 35.684L19.092 25.6693C20.28 25.6693 22.436 25.5766 24.108 24.5102C25.516 23.5829 27.364 23.9539 28.244 25.3448C28.068 25.4375 27.892 25.5302 27.716 25.623C26.572 26.4111 25.12 26.9212 23.976 27.2457C23.052 27.5239 22.392 28.3584 22.304 29.3785C22.26 30.3985 21.996 31.4648 21.776 32.1603C21.6 32.7167 21.82 33.273 22.304 33.5976C22.568 33.7367 22.832 33.8294 23.14 33.8294C23.536 33.8294 23.888 33.6903 24.196 33.4121C25.252 32.4385 26.748 30.9085 26.616 30.213C26.616 30.213 28.024 30.4448 28.332 30.0739C28.332 30.0739 35.284 35.7303 36.912 39.1613C36.868 39.1613 37 39.7177 37 40.2277Z" fill="#F9B54C"/>
<path d="M43.4772 36.1701C42.0614 37.0835 37.6315 39.8693 37.3575 39.2756C35.6221 35.8961 28.4063 30.3701 28.4063 30.3701C28.0866 30.7354 26.6252 30.5071 26.6252 30.5071C26.7622 31.1921 25.2095 32.7449 24.1134 33.6583C23.7937 33.9323 23.4284 34.0693 23.0173 34.0693C22.7433 34.0693 22.4236 33.9779 22.1496 33.8409C21.6473 33.5669 21.4646 32.9732 21.6016 32.4252C21.8299 31.7401 22.104 30.6898 22.1496 29.685C22.1953 28.6803 22.926 27.8583 23.8851 27.5842C25.0725 27.2646 26.5795 26.7165 27.7669 25.9858C28.9087 25.2551 30.3244 25.1638 31.5575 25.7575C33.2929 26.6252 35.9418 27.3559 39.0473 26.0315L43.4772 36.1701Z" fill="#FFD05B"/>
<path d="M26.1685 43.0204C26.5795 42.6094 26.5795 42.0157 26.1685 41.6047L25.5748 41.011C25.2095 40.6456 24.6614 40.6456 24.2504 40.9197L23.8851 41.2393L24.3874 40.737C24.8441 40.2803 24.8441 39.4582 24.3874 39.0016L23.9307 38.5449C23.474 38.0882 22.6976 38.0882 22.1953 38.5449L21.6016 39.0929C22.0126 38.6819 22.0126 37.9968 21.6016 37.5858L20.8709 36.8551C20.4599 36.4441 19.8205 36.4441 19.4095 36.8094L17.5827 38.4535C17.9024 38.1338 17.9024 37.6771 17.5827 37.3575L17.0347 36.8094C16.715 36.4897 16.2583 36.4897 15.9386 36.8094L15.2992 37.4488C15.3449 39.5496 17.263 39.0929 17.263 39.0929C17.126 41.6504 20.0032 41.5134 20.0032 41.5134C19.5008 44.2535 22.8803 43.7968 22.8803 43.7968C22.9717 45.8976 26.4882 45.2126 26.4882 45.2126L26.0315 43.7968C25.8945 43.5228 25.9402 43.2031 26.1685 43.0204Z" fill="#FFD05B"/>
<path d="M17.4913 37.9969L17.4 38.1339C17.1716 38.4079 16.7606 38.4079 16.5323 38.1796L16.2126 37.9055C15.9386 37.6772 15.9386 37.2662 16.1669 37.0378L16.2583 36.9008C16.4866 36.6268 16.8976 36.6268 17.126 36.8551L17.4457 37.1292C17.674 37.3118 17.7197 37.7229 17.4913 37.9969Z" fill="white"/>
<path d="M21.6016 38.4079L21.4189 38.5906C21.0992 38.9559 20.5968 39.0016 20.2315 38.6819L19.8205 38.3166C19.4551 37.9969 19.4094 37.4945 19.7291 37.1292L19.8661 36.9465C20.1858 36.5811 20.6882 36.5355 21.0535 36.8551L21.4646 37.2205C21.8299 37.5402 21.8756 38.0425 21.6016 38.4079Z" fill="white"/>
<path d="M24.3874 40.0063L24.2504 40.189C23.9307 40.5543 23.4284 40.6 23.063 40.2803L22.652 39.915C22.2866 39.5953 22.241 39.0929 22.5606 38.7276L22.6977 38.5449C23.0173 38.1795 23.5197 38.1339 23.8851 38.4536L24.2961 38.8189C24.6614 39.1386 24.7071 39.6866 24.3874 40.0063Z" fill="white"/>
<path d="M26.0315 42.1071L25.8945 42.2441C25.6661 42.5181 25.2094 42.5638 24.9354 42.3354L24.5701 42.0614C24.296 41.8331 24.2504 41.3764 24.4787 41.1024L24.6157 40.9654C24.8441 40.6913 25.3008 40.6457 25.5748 40.874L25.9401 41.148C26.2142 41.3764 26.2598 41.8331 26.0315 42.1071Z" fill="white"/>
<path d="M23.0173 32.2882L23.474 31.1465C23.611 30.7811 23.4283 30.3701 23.0173 30.2331L22.1496 30.0048C22.0582 30.9181 21.8299 31.8315 21.6015 32.4709C21.5559 32.6079 21.5559 32.7906 21.5559 32.9276C22.1496 33.1103 22.7889 32.8363 23.0173 32.2882Z" fill="white"/>
<path d="M47.1764 36.4441L44.1622 37.7685L38.7276 25.0725L41.011 23.9307L47.1764 36.4441Z" fill="white"/>
<path d="M58 29.023C58 23.9195 56.7143 19.1379 54.4184 15L40 22.0805L48.3112 39L57.5408 34.1724C57.8163 32.4713 58 30.7701 58 29.023Z" fill="#324A5E"/>
<path d="M19 25.1551L13.8541 38L11 36.6601L16.8378 24L19 25.1551Z" fill="white"/>
<path d="M0 29.0499C0 30.8004 0.183673 32.5048 0.459184 34.1631L9.68878 39L18 22.048L3.58163 15C1.28571 19.1459 0 23.9367 0 29.0499Z" fill="#324A5E"/>
<path d="M49.9622 35.622C50.7189 35.622 51.3323 35.0086 51.3323 34.2519C51.3323 33.4953 50.7189 32.8819 49.9622 32.8819C49.2055 32.8819 48.5921 33.4953 48.5921 34.2519C48.5921 35.0086 49.2055 35.622 49.9622 35.622Z" fill="#2B3B4E"/>
<path d="M53.4331 33.7496C54.1897 33.7496 54.8031 33.1362 54.8031 32.3795C54.8031 31.6228 54.1897 31.0094 53.4331 31.0094C52.6764 31.0094 52.063 31.6228 52.063 32.3795C52.063 33.1362 52.6764 33.7496 53.4331 33.7496Z" fill="#2B3B4E"/>
<path d="M7.76376 36.0787C8.52043 36.0787 9.13383 35.4653 9.13383 34.7086C9.13383 33.952 8.52043 33.3386 7.76376 33.3386C7.00708 33.3386 6.39368 33.952 6.39368 34.7086C6.39368 35.4653 7.00708 36.0787 7.76376 36.0787Z" fill="#2B3B4E"/>
<path d="M4.2929 34.2063C5.04957 34.2063 5.66298 33.5929 5.66298 32.8362C5.66298 32.0795 5.04957 31.4661 4.2929 31.4661C3.53623 31.4661 2.92282 32.0795 2.92282 32.8362C2.92282 33.5929 3.53623 34.2063 4.2929 34.2063Z" fill="#2B3B4E"/>
</svg>
