<svg width="73" height="55" viewBox="0 0 73 55" fill="none" xmlns="http://www.w3.org/2000/svg">
<path d="M48.3995 1.45728H24.902V19.0817H48.3995V1.45728Z" fill="#FED159"/>
<path d="M71.8169 11.3837H1.48651V53.5737H71.8169V11.3837Z" fill="#82DCC7"/>
<path d="M19.9547 45.7743C27.0327 45.7743 32.7705 40.0365 32.7705 32.9585C32.7705 25.8806 27.0327 20.1427 19.9547 20.1427C12.8767 20.1427 7.13892 25.8806 7.13892 32.9585C7.13892 40.0365 12.8767 45.7743 19.9547 45.7743Z" fill="white"/>
<path d="M19.9547 35.706C22.5448 35.706 24.6445 33.6063 24.6445 31.0162C24.6445 28.4261 22.5448 26.3264 19.9547 26.3264C17.3646 26.3264 15.2649 28.4261 15.2649 31.0162C15.2649 33.6063 17.3646 35.706 19.9547 35.706Z" fill="#FCD589"/>
<path d="M26.6068 42.3594V43.9135C24.6682 45.0938 22.3895 45.7739 19.9541 45.7739C17.5187 45.7739 15.2418 45.0938 13.3031 43.9154V42.3594C13.3031 38.6832 16.2797 35.7067 19.9541 35.7067C23.6285 35.7066 26.6068 38.6832 26.6068 42.3594Z" fill="#F64B4A"/>
<path d="M71.6649 10.0332H26.0861V2.77712H46.9137V7.04948C46.9137 7.7869 47.5114 8.38473 48.249 8.38473C48.9865 8.38473 49.5842 7.7869 49.5842 7.04948V1.44188C49.5842 0.70446 48.9865 0.106628 48.249 0.106628H24.7509C24.0133 0.106628 23.4157 0.70446 23.4157 1.44188V10.0332H1.33525C0.597689 10.0332 0 10.6311 0 11.3685V53.5581C0 54.2955 0.597689 54.8934 1.33525 54.8934H10.2555C10.9931 54.8934 11.5908 54.2955 11.5908 53.5581C11.5908 52.8207 10.9931 52.2229 10.2555 52.2229H2.67035V12.7036H70.3298V52.2229H15.3287C14.5912 52.2229 13.9935 52.8207 13.9935 53.5581C13.9935 54.2955 14.5912 54.8934 15.3287 54.8934H71.6648C72.4023 54.8934 73 54.2955 73 53.5581V11.3683C73.0001 10.6311 72.4023 10.0332 71.6649 10.0332Z" fill="black"/>
<path d="M19.8026 21.4616C22.1727 21.4616 24.4472 22.1775 26.3806 23.5315C26.9851 23.9547 27.817 23.8077 28.2402 23.204C28.6632 22.5999 28.5165 21.7676 27.9124 21.3444C25.5278 19.6742 22.7236 18.7914 19.8023 18.7914C11.9993 18.7914 5.65109 25.1395 5.65109 32.9426C5.65109 37.9253 8.19555 42.4478 12.4576 45.0408C14.6669 46.3837 17.2066 47.0938 19.8023 47.0938C22.4005 47.0938 24.9411 46.3832 27.1492 45.0388C31.4099 42.4466 33.9536 37.9247 33.9536 32.9426C33.9536 30.1067 33.1177 27.3705 31.5361 25.0296C31.1232 24.4187 30.2932 24.2581 29.6821 24.6707C29.0712 25.0837 28.9106 25.9136 29.3232 26.5246C30.6056 28.4223 31.2833 30.6415 31.2833 32.9427C31.2833 36.1514 29.9814 39.1242 27.7152 41.2664C27.3803 38.794 25.9109 36.678 23.8489 35.4611C25.0636 34.3581 25.8275 32.7671 25.8275 31.0011C25.8275 27.6787 23.1245 24.976 19.8024 24.976C16.4804 24.976 13.7773 27.6787 13.7773 31.0011C13.7773 32.7672 14.5414 34.3584 15.7561 35.4615C13.6939 36.6787 12.2245 38.7948 11.8899 41.2674C9.62347 39.1249 8.32144 36.1519 8.32144 32.9431C8.32173 26.6119 13.4722 21.4616 19.8026 21.4616ZM19.8026 27.6459C21.6524 27.6459 23.1573 29.1507 23.1573 31.0007C23.1573 32.8506 21.6525 34.3554 19.8026 34.3554C17.9526 34.3554 16.4478 32.8503 16.4478 31.0007C16.4478 29.151 17.9529 27.6459 19.8026 27.6459ZM19.8029 37.0262C22.7346 37.0262 25.1196 39.4112 25.1196 42.3431V43.1193C23.4867 43.974 21.6635 44.4233 19.8026 44.4233C17.9431 44.4233 16.1199 43.974 14.4861 43.1198V42.3431C14.486 39.4114 16.8712 37.0262 19.8029 37.0262Z" fill="black"/>
<path d="M63.6601 21.4619C64.3977 21.4619 64.9954 20.864 64.9954 20.1266C64.9954 19.3892 64.3977 18.7914 63.6601 18.7914H58.0527C57.3151 18.7914 56.7174 19.3892 56.7174 20.1266C56.7174 20.864 57.3151 21.4619 58.0527 21.4619H63.6601Z" fill="black"/>
<path d="M43.3664 21.4619H53.6021C54.3396 21.4619 54.9373 20.864 54.9373 20.1266C54.9373 19.3892 54.3396 18.7914 53.6021 18.7914H43.3664C42.6288 18.7914 42.0311 19.3892 42.0311 20.1266C42.0311 20.864 42.6288 21.4619 43.3664 21.4619Z" fill="black"/>
<path d="M63.6601 30.8143H51.8222C51.0847 30.8143 50.487 31.4121 50.487 32.1495C50.487 32.887 51.0847 33.4848 51.8222 33.4848H63.6601C64.3977 33.4848 64.9953 32.887 64.9953 32.1495C64.9953 31.4121 64.3975 30.8143 63.6601 30.8143Z" fill="black"/>
<path d="M43.3664 33.4846H47.3715C48.1091 33.4846 48.7068 32.8868 48.7068 32.1494C48.7068 31.412 48.1091 30.8141 47.3715 30.8141H43.3664C42.6288 30.8141 42.0311 31.412 42.0311 32.1494C42.0311 32.8868 42.6288 33.4846 43.3664 33.4846Z" fill="black"/>
<path d="M43.3664 47.0935H63.6601C64.3977 47.0935 64.9954 46.4956 64.9954 45.7582C64.9954 45.0208 64.3977 44.423 63.6601 44.423H43.3664C42.6288 44.423 42.0311 45.0208 42.0311 45.7582C42.0313 46.4956 42.6288 47.0935 43.3664 47.0935Z" fill="black"/>
<path d="M43.3664 27.4731H63.6601C64.3977 27.4731 64.9954 26.8753 64.9954 26.1379C64.9954 25.4005 64.3977 24.8026 63.6601 24.8026H43.3664C42.6288 24.8026 42.0311 25.4005 42.0311 26.1379C42.0311 26.8753 42.6288 27.4731 43.3664 27.4731Z" fill="black"/>
</svg>
