<svg width="513" height="513" viewBox="0 0 513 513" fill="none" xmlns="http://www.w3.org/2000/svg">
<g clip-path="url(#clip0_10_43)">
<path d="M339.627 73.6723H174.823V197.284H339.627V73.6723Z" fill="#FED159"/>
<path d="M503.869 143.293H10.5939V439.2H503.869V143.293Z" fill="#82DCC7"/>
<path d="M140.124 384.498C189.767 384.498 230.01 344.255 230.01 294.612C230.01 244.97 189.767 204.726 140.124 204.726C90.4813 204.726 50.2379 244.97 50.2379 294.612C50.2379 344.255 90.4813 384.498 140.124 384.498Z" fill="white"/>
<path d="M140.124 313.882C158.29 313.882 173.017 299.156 173.017 280.989C173.017 262.823 158.29 248.096 140.124 248.096C121.958 248.096 107.231 262.823 107.231 280.989C107.231 299.156 121.958 313.882 140.124 313.882Z" fill="#FCD589"/>
<path d="M186.78 360.547V371.447C173.183 379.725 157.201 384.495 140.12 384.495C123.039 384.495 107.069 379.725 93.4719 371.46V360.547C93.4719 334.763 114.349 313.887 140.12 313.887C165.891 313.886 186.78 334.763 186.78 360.547Z" fill="#F64B4A"/>
<path d="M502.803 133.821H183.128V82.9293H329.206V112.894C329.206 118.066 333.398 122.259 338.571 122.259C343.744 122.259 347.936 118.066 347.936 112.894V73.5643C347.936 68.3923 343.744 64.1993 338.571 64.1993H173.763C168.59 64.1993 164.398 68.3923 164.398 73.5643V133.821H9.53293C4.35993 133.821 0.167931 138.014 0.167931 143.186V439.091C0.167931 444.263 4.35993 448.456 9.53293 448.456H72.0969C77.2699 448.456 81.4619 444.263 81.4619 439.091C81.4619 433.919 77.2699 429.726 72.0969 429.726H18.8969V152.55H493.439V429.726H107.679C102.506 429.726 98.3139 433.919 98.3139 439.091C98.3139 444.263 102.506 448.456 107.679 448.456H502.802C507.975 448.456 512.167 444.263 512.167 439.091V143.185C512.168 138.014 507.975 133.821 502.803 133.821Z" fill="black"/>
<path d="M139.057 213.976C155.68 213.976 171.633 218.997 185.193 228.494C189.433 231.462 195.268 230.431 198.236 226.197C201.203 221.96 200.174 216.122 195.937 213.154C179.212 201.44 159.544 195.248 139.055 195.248C84.3269 195.248 39.8029 239.772 39.8029 294.5C39.8029 329.447 57.6489 361.167 87.5419 379.353C103.037 388.772 120.85 393.752 139.055 393.752C157.278 393.752 175.097 388.768 190.584 379.339C220.467 361.158 238.308 329.443 238.308 294.5C238.308 274.61 232.445 255.419 221.352 239.001C218.456 234.716 212.635 233.59 208.349 236.484C204.064 239.38 202.938 245.201 205.832 249.486C214.826 262.796 219.579 278.361 219.579 294.501C219.579 317.006 210.448 337.856 194.554 352.881C192.205 335.54 181.899 320.699 167.437 312.164C175.956 304.428 181.314 293.269 181.314 280.883C181.314 257.581 162.356 238.625 139.056 238.625C115.756 238.625 96.7979 257.581 96.7979 280.883C96.7979 293.27 102.157 304.43 110.676 312.167C96.2129 320.704 85.9069 335.546 83.5599 352.888C67.6639 337.861 58.5319 317.009 58.5319 294.504C58.5339 250.099 94.6579 213.976 139.057 213.976ZM139.057 257.351C152.031 257.351 162.586 267.905 162.586 280.88C162.586 293.855 152.032 304.409 139.057 304.409C126.082 304.409 115.528 293.853 115.528 280.88C115.528 267.907 126.084 257.351 139.057 257.351ZM139.059 323.141C159.621 323.141 176.349 339.869 176.349 360.432V365.876C164.896 371.871 152.109 375.022 139.057 375.022C126.015 375.022 113.228 371.871 101.769 365.88V360.432C101.768 339.87 118.497 323.141 139.059 323.141Z" fill="black"/>
<path d="M446.66 213.978C451.833 213.978 456.025 209.785 456.025 204.613C456.025 199.441 451.833 195.248 446.66 195.248H407.331C402.158 195.248 397.966 199.441 397.966 204.613C397.966 209.785 402.158 213.978 407.331 213.978H446.66Z" fill="black"/>
<path d="M304.326 213.978H376.116C381.289 213.978 385.481 209.785 385.481 204.613C385.481 199.441 381.289 195.248 376.116 195.248H304.326C299.153 195.248 294.961 199.441 294.961 204.613C294.961 209.785 299.153 213.978 304.326 213.978Z" fill="black"/>
<path d="M446.66 279.573H363.633C358.46 279.573 354.268 283.766 354.268 288.938C354.268 294.11 358.46 298.303 363.633 298.303H446.66C451.833 298.303 456.025 294.11 456.025 288.938C456.025 283.766 451.832 279.573 446.66 279.573Z" fill="black"/>
<path d="M304.326 298.302H332.417C337.59 298.302 341.782 294.109 341.782 288.937C341.782 283.765 337.59 279.572 332.417 279.572H304.326C299.153 279.572 294.961 283.765 294.961 288.937C294.961 294.109 299.153 298.302 304.326 298.302Z" fill="black"/>
<path d="M304.326 393.75H446.66C451.833 393.75 456.025 389.557 456.025 384.385C456.025 379.213 451.833 375.02 446.66 375.02H304.326C299.153 375.02 294.961 379.213 294.961 384.385C294.962 389.557 299.153 393.75 304.326 393.75Z" fill="black"/>
<path d="M304.326 256.139H446.66C451.833 256.139 456.025 251.946 456.025 246.774C456.025 241.602 451.833 237.409 446.66 237.409H304.326C299.153 237.409 294.961 241.602 294.961 246.774C294.961 251.946 299.153 256.139 304.326 256.139Z" fill="black"/>
</g>
<defs>
<clipPath id="clip0_10_43">
<rect width="511.999" height="511.999" fill="white" transform="translate(0.167931 0.328278)"/>
</clipPath>
</defs>
</svg>
