<svg width="35" height="50" viewBox="0 0 35 50" fill="none" xmlns="http://www.w3.org/2000/svg">
<path fill-rule="evenodd" clip-rule="evenodd" d="M0 17.5C0 7.83503 7.83503 0 17.5 0C27.165 0 35 7.83503 35 17.5V32.5C35 42.165 27.165 50 17.5 50C7.83503 50 0 42.165 0 32.5V17.5ZM17.5 5C10.5964 5 5 10.5964 5 17.5V32.5C5 39.4035 10.5964 45 17.5 45C24.4035 45 30 39.4035 30 32.5V17.5C30 10.5964 24.4035 5 17.5 5ZM17.5 12.5C18.8807 12.5 20 13.6193 20 15V22.5C20 23.8807 18.8807 25 17.5 25C16.1193 25 15 23.8807 15 22.5V15C15 13.6193 16.1193 12.5 17.5 12.5Z" fill="#0E0578"/>
</svg>
