<svg width="37" height="37" viewBox="0 0 37 37" fill="none" xmlns="http://www.w3.org/2000/svg">
<path d="M33.9579 10.2762L27.4353 3.74121V29.9291H36.1645V15.5824C36.1645 13.5903 35.3701 11.6806 33.9579 10.2762Z" fill="#FFB782"/>
<path d="M5.09829 25.1572L0.1673 12.3563C-0.327612 11.0713 0.312624 9.62785 1.59835 9.1327L24.8726 0.167728C26.1576 -0.327184 27.601 0.313052 28.096 1.59877L33.0269 14.3997C33.5219 15.6847 32.8816 17.1281 31.5959 17.6233L8.32238 26.5883C7.03665 27.0832 5.59392 26.4422 5.09829 25.1572Z" fill="#DE4C3C"/>
<path d="M29.873 6.21027L1.9668 17.0272L3.82498 21.8508L31.7324 11.0389L29.873 6.21027Z" fill="#7A4930"/>
<path d="M0.000244141 16.2116V2.49413C0.000244141 1.11677 1.11702 0 2.49437 0H27.4352C28.8125 0 29.9293 1.11677 29.9293 2.49413V16.2116C29.9293 17.589 28.8125 18.7057 27.4352 18.7057H2.49437C1.11702 18.7057 0.000244141 17.589 0.000244141 16.2116Z" fill="#4398D1"/>
<path d="M27.4353 0H24.7853L6.07959 18.7057H27.4353C28.8126 18.7057 29.9294 17.589 29.9294 16.2116V2.49413C29.9294 1.11677 28.8126 0 27.4353 0Z" fill="#3E8CC7"/>
<path d="M2.49438 9.97626H4.98851V11.2233H2.49438V9.97626Z" fill="#5EB3D1"/>
<path d="M2.49438 13.7175H4.98851V14.9645H2.49438V13.7175Z" fill="#5EB3D1"/>
<path d="M13.7178 13.7175H16.2119V14.9645H13.7178V13.7175Z" fill="#5EB3D1"/>
<path d="M6.2356 9.97626H8.72949V11.2233H6.2356V9.97626Z" fill="#5EB3D1"/>
<path d="M9.97656 9.97626H12.4707V11.2233H9.97656V9.97626Z" fill="#5EB3D1"/>
<path d="M13.7178 9.97626H16.2119V11.2233H13.7178V9.97626Z" fill="#5EB3D1"/>
<path d="M25.5647 2.49414H26.8118V4.36474H25.5647V2.49414Z" fill="#5EB3D1"/>
<path d="M23.0706 2.49414H24.3176V4.36474H23.0706V2.49414Z" fill="#5EB3D1"/>
<path d="M20.5764 2.49414H21.8235V4.36474H20.5764V2.49414Z" fill="#5EB3D1"/>
<path d="M18.0825 2.49414H19.3293V4.36474H18.0825V2.49414Z" fill="#5EB3D1"/>
<path d="M24.9412 29.9291H36.1645V36.1642H24.9412V29.9291Z" fill="#88B337"/>
<path d="M23.1109 11.2639C22.0533 10.2101 20.3419 10.2132 19.2881 11.2708C18.2692 12.2933 18.2339 13.9363 19.2077 15.002L24.3174 20.5763C22.7816 23.2642 22.8472 26.5787 24.4876 29.2039L24.941 29.9291H33.0466V21.1998L23.1109 11.2639Z" fill="#FFB782"/>
<path d="M26.8118 31.7997H28.0588V33.0467H26.8118V31.7997Z" fill="#6B962A"/>
<path d="M2.49438 6.4847V3.49184C2.49438 2.94061 2.94086 2.49414 3.49208 2.49414H6.48494C7.03617 2.49414 7.4824 2.94061 7.4824 3.49184V6.4847C7.4824 7.03593 7.03617 7.4824 6.48494 7.4824H3.49208C2.94086 7.4824 2.49438 7.03593 2.49438 6.4847Z" fill="#FDB62F"/>
<path d="M2.49438 4.36475H4.36498V5.61181H2.49438V4.36475Z" fill="#FD7B2F"/>
<path d="M5.61206 4.36475H7.48242V5.61181H5.61206V4.36475Z" fill="#FD7B2F"/>
<path d="M32.4231 21.1999C32.258 21.1999 32.0991 21.1342 31.9824 21.0171L29.4883 18.523C29.2489 18.2755 29.2559 17.8808 29.504 17.6412C29.746 17.4081 30.1287 17.4081 30.37 17.6412L32.8641 20.1354C33.1073 20.3792 33.1073 20.7739 32.8641 21.0171C32.7467 21.1342 32.5885 21.1999 32.4231 21.1999Z" fill="#F2A46F"/>
</svg>
