<svg width="78" height="77" viewBox="0 0 78 77" fill="none" xmlns="http://www.w3.org/2000/svg">
<path d="M43.2731 -4.84784e-07C40.5231 -4.84784e-07 38.2731 2.24999 38.2731 5V12.5C38.2731 13.375 37.2731 13.875 36.5231 13.375C35.2731 12.625 33.7731 12.25 32.1481 12.625C29.6481 13.125 27.6481 15 27.1481 17.375C26.2731 21.5 29.3981 25 33.2731 25C34.5231 25 35.5231 24.625 36.5231 24.125C37.2731 23.625 38.2731 24.125 38.2731 25.125V32.625C38.2731 35.375 40.5231 37.625 43.2731 37.625L52.0231 37.625C52.8981 37.625 53.3981 36.625 52.8981 35.875C52.1481 34.625 51.7731 33.125 52.1481 31.5C52.6481 29 54.5231 27 56.8981 26.5C60.8981 25.625 64.5231 28.75 64.5231 32.625C64.5231 33.875 64.1481 34.875 63.6481 35.875C63.1481 36.5 63.6481 37.5 64.5231 37.5H72.0231C74.7731 37.5 77.0231 35.25 77.0231 32.5V5C77.0231 2.24999 74.7731 -4.84784e-07 72.0231 -4.84784e-07L43.2731 -4.84784e-07Z" fill="#C34A4A"/>
<path d="M-4.84784e-07 33.75C-4.84784e-07 36.5 2.24999 38.75 5 38.75H12.5C13.375 38.75 13.875 39.75 13.375 40.5C12.625 41.75 12.25 43.25 12.625 44.875C13.125 47.375 15 49.375 17.375 49.875C21.5 50.75 25 47.625 25 43.75C25 42.5 24.625 41.5 24.125 40.5C23.625 39.75 24.125 38.75 25.125 38.75H32.625C35.375 38.75 37.625 36.5 37.625 33.75V25C37.625 24.125 36.625 23.625 35.875 24.125C34.625 24.875 33.125 25.25 31.5 24.875C29 24.375 27 22.5 26.5 20.125C25.625 16.125 28.75 12.5 32.625 12.5C33.875 12.5 34.875 12.875 35.875 13.375C36.5 13.875 37.5 13.375 37.5 12.5V5.00001C37.5 2.25001 35.25 1.28746e-05 32.5 1.28746e-05L5 1.28746e-05C2.24999 1.28746e-05 -4.84784e-07 2.25001 -4.84784e-07 5.00001V33.75Z" fill="#4A97C3"/>
<path d="M76.625 42.2731C76.625 39.5231 74.375 37.2731 71.625 37.2731H64.125C63.25 37.2731 62.75 36.2731 63.25 35.5231C64 34.2731 64.375 32.7731 64 31.1481C63.5 28.6481 61.625 26.6481 59.25 26.1481C55.125 25.2731 51.625 28.3981 51.625 32.2731C51.625 33.5231 52 34.5231 52.5 35.5231C53 36.2731 52.5 37.2731 51.5 37.2731H44C41.25 37.2731 39 39.5231 39 42.2731V51.0231C39 51.8981 40 52.3981 40.75 51.8981C42 51.1481 43.5 50.7731 45.125 51.1481C47.625 51.6481 49.625 53.5231 50.125 55.8981C51 59.8981 47.875 63.5231 44 63.5231C42.75 63.5231 41.75 63.1481 40.75 62.6481C40.125 62.1481 39.125 62.6481 39.125 63.5231V71.0231C39.125 73.7731 41.375 76.0231 44.125 76.0231H71.625C74.375 76.0231 76.625 73.7731 76.625 71.0231V42.2731Z" fill="#8BC34A"/>
<path d="M33.75 75.625C36.5 75.625 38.75 73.375 38.75 70.625V63.125C38.75 62.25 39.75 61.75 40.5 62.25C41.75 63 43.25 63.375 44.875 63C47.375 62.5 49.375 60.625 49.875 58.25C50.75 54.125 47.625 50.625 43.75 50.625C42.5 50.625 41.5 51 40.5 51.5C39.75 52 38.75 51.5 38.75 50.5V43C38.75 40.25 36.5 38 33.75 38L25 38C24.125 38 23.625 39 24.125 39.75C24.875 41 25.25 42.5 24.875 44.125C24.375 46.625 22.5 48.625 20.125 49.125C16.125 50 12.5 46.875 12.5 43C12.5 41.75 12.875 40.75 13.375 39.75C13.875 39.125 13.375 38.125 12.5 38.125H5.00001C2.25001 38.125 1.28746e-05 40.375 1.28746e-05 43.125L1.28746e-05 70.625C1.28746e-05 73.375 2.25001 75.625 5.00001 75.625H33.75Z" fill="#FFE602"/>
</svg>
