<svg width="140" height="94" viewBox="0 0 140 94" fill="none" xmlns="http://www.w3.org/2000/svg">
<path d="M46.4728 4.82235C48.0265 1.85758 51.0972 0 54.4444 0H66.7611C72.6819 0 76.9896 5.61863 75.4526 11.3364L66 46.5L56.6264 86.551C55.6737 90.6214 52.0436 93.5 47.8632 93.5H14.8776C8.11197 93.5 3.76545 86.3149 6.90594 80.3223L46.4728 4.82235Z" fill="white"/>
<path d="M107.473 4.82235C109.027 1.85758 112.097 0 115.444 0H127.761C133.682 0 137.99 5.61863 136.453 11.3364L127 46.5L117.626 86.551C116.674 90.6214 113.044 93.5 108.863 93.5H75.8776C69.112 93.5 64.7654 86.3149 67.9059 80.3223L107.473 4.82235Z" fill="white"/>
</svg>
