<svg width="287" height="287" viewBox="0 0 287 287" fill="none" xmlns="http://www.w3.org/2000/svg">
<g clip-path="url(#clip0_10_82)">
<path d="M4.47427 161.58C4.47427 177.445 7.599 193.154 13.67 207.811C19.7411 222.467 28.6395 235.785 39.8574 247.003C51.0752 258.22 64.3927 267.119 79.0494 273.19C93.7062 279.261 109.415 282.386 125.28 282.386C141.144 282.386 156.853 279.261 171.51 273.19C186.167 267.119 199.484 258.22 210.702 247.003C221.92 235.785 230.818 222.467 236.889 207.811C242.96 193.154 246.085 177.445 246.085 161.58C246.085 145.716 242.96 130.007 236.889 115.35C230.818 100.693 221.92 87.3758 210.702 76.158C199.484 64.9402 186.167 56.0418 171.51 49.9707C156.853 43.8997 141.144 40.7749 125.28 40.7749C109.415 40.7749 93.7062 43.8997 79.0494 49.9707C64.3927 56.0418 51.0752 64.9402 39.8574 76.158C28.6395 87.3758 19.7411 100.693 13.67 115.35C7.599 130.007 4.47427 145.716 4.47427 161.58Z" fill="white"/>
<path d="M125.28 286.86C56.1521 286.86 0 230.708 0 161.58C0 92.4528 56.1521 36.3007 125.28 36.3007C194.407 36.3007 250.559 92.4528 250.559 161.58C250.559 230.708 194.407 286.86 125.28 286.86ZM125.28 45.2492C61.0738 45.2492 8.94855 97.3745 8.94855 161.58C8.94855 225.786 61.0738 277.911 125.28 277.911C189.485 277.911 241.611 225.786 241.611 161.58C241.611 97.3745 189.485 45.2492 125.28 45.2492Z" fill="#191919"/>
<path d="M34.4519 161.58C34.4519 173.508 36.8012 185.319 41.3658 196.339C45.9303 207.358 52.6206 217.371 61.0547 225.805C69.4889 234.239 79.5016 240.93 90.5214 245.494C101.541 250.059 113.352 252.408 125.28 252.408C137.207 252.408 149.018 250.059 160.038 245.494C171.058 240.93 181.07 234.239 189.505 225.805C197.939 217.371 204.629 207.358 209.194 196.339C213.758 185.319 216.107 173.508 216.107 161.58C216.107 149.653 213.758 137.842 209.194 126.822C204.629 115.802 197.939 105.79 189.505 97.3554C181.07 88.9213 171.058 82.231 160.038 77.6664C149.018 73.1019 137.207 70.7526 125.28 70.7526C113.352 70.7526 101.541 73.1019 90.5214 77.6664C79.5016 82.231 69.4889 88.9213 61.0547 97.3554C52.6206 105.79 45.9303 115.802 41.3658 126.822C36.8012 137.842 34.4519 149.653 34.4519 161.58Z" fill="#F86C6C"/>
<path d="M125.28 257.106C72.7069 257.106 29.9776 214.377 29.9776 161.804C29.9776 109.231 72.7069 66.502 125.28 66.502C177.852 66.502 220.582 109.231 220.582 161.804C220.582 214.377 177.852 257.106 125.28 257.106ZM125.28 75.2269C77.6286 75.2269 38.9262 113.929 38.9262 161.58C38.9262 209.231 77.6286 247.934 125.28 247.934C172.931 247.934 211.633 209.231 211.633 161.58C211.633 113.929 172.931 75.2269 125.28 75.2269Z" fill="#191919"/>
<path d="M66.8904 161.58C66.8904 177.066 73.0421 191.918 83.9922 202.868C94.9423 213.818 109.794 219.97 125.28 219.97C140.765 219.97 155.617 213.818 166.567 202.868C177.517 191.918 183.669 177.066 183.669 161.58C183.669 146.095 177.517 131.243 166.567 120.293C155.617 109.343 140.765 103.191 125.28 103.191C109.794 103.191 94.9423 109.343 83.9922 120.293C73.0421 131.243 66.8904 146.095 66.8904 161.58Z" fill="white"/>
<path d="M125.28 224.668C90.604 224.668 62.4161 196.48 62.4161 161.804C62.4161 127.128 90.604 98.7168 125.28 98.7168C159.955 98.7168 188.143 126.905 188.143 161.58C188.143 196.256 159.955 224.668 125.28 224.668ZM125.28 107.665C95.5257 107.665 71.3647 131.826 71.3647 161.58C71.3647 191.334 95.5257 215.495 125.28 215.495C155.034 215.495 179.195 191.334 179.195 161.58C179.195 131.826 155.034 107.665 125.28 107.665Z" fill="#191919"/>
<path d="M96.868 161.58C96.868 165.311 97.6029 169.006 99.0307 172.453C100.459 175.9 102.551 179.032 105.19 181.67C107.828 184.309 110.96 186.401 114.407 187.829C117.854 189.257 121.549 189.992 125.28 189.992C129.011 189.992 132.705 189.257 136.152 187.829C139.599 186.401 142.731 184.309 145.37 181.67C148.008 179.032 150.101 175.9 151.529 172.453C152.956 169.006 153.691 165.311 153.691 161.58C153.691 154.045 150.698 146.818 145.37 141.49C140.042 136.162 132.815 133.169 125.28 133.169C117.744 133.169 110.518 136.162 105.19 141.49C99.8614 146.818 96.868 154.045 96.868 161.58Z" fill="#F86C6C"/>
<path d="M125.28 194.466C107.159 194.466 92.3938 179.701 92.3938 161.58C92.3938 143.46 107.159 128.694 125.28 128.694C143.4 128.694 158.166 143.46 158.166 161.58C158.166 179.925 143.4 194.466 125.28 194.466ZM125.28 137.867C112.081 137.867 101.342 148.605 101.342 161.804C101.342 175.003 112.081 185.518 125.28 185.518C138.479 185.518 149.217 174.779 149.217 161.58C149.217 148.381 138.479 137.867 125.28 137.867Z" fill="#191919"/>
<path d="M282.327 32.2738L246.085 68.2917L217.897 68.9629L218.568 40.775L254.81 4.75705L253.691 33.3924L282.327 32.2738Z" fill="#C2CDDC"/>
<path d="M218.121 73.4372C217.002 73.4372 215.884 72.9897 214.989 72.0949C214.094 71.2 213.647 70.0815 213.647 68.7392L214.318 40.5512C214.318 39.4327 214.765 38.3141 215.66 37.4193L251.902 1.40135C253.244 0.0590659 255.257 -0.164648 256.823 0.506493C258.613 1.17763 259.508 2.96734 259.508 4.75705L258.613 28.4707L282.327 27.5758C284.116 27.5758 285.906 28.4707 286.577 30.2604C287.248 32.0501 287.025 33.8398 285.682 35.1821L249.441 71.2C248.546 72.0949 247.427 72.5423 246.309 72.5423L218.121 73.4372ZM223.043 42.7884L222.595 64.4886L244.295 64.0412L271.141 37.1955L253.915 37.8667C252.573 37.8667 251.454 37.4192 250.559 36.5244C249.664 35.6295 249.217 34.511 249.217 33.1687L249.888 15.9427L223.043 42.7884Z" fill="#191919"/>
<path d="M127.517 162.699C126.398 162.699 125.28 162.251 124.385 161.357C122.595 159.567 122.595 156.882 124.385 155.093L271.588 7.88903C273.378 6.09933 276.063 6.09933 277.852 7.88903C279.642 9.67874 279.642 12.3633 277.852 14.153L130.649 161.357C129.754 162.251 128.635 162.699 127.517 162.699Z" fill="#191919"/>
<path d="M263.982 52.8555H237.36C234.899 52.8555 232.886 50.8421 232.886 48.3812V22.2067C232.886 19.7459 234.899 17.7324 237.36 17.7324C239.821 17.7324 241.834 19.7459 241.834 22.2067V43.9069H263.982C266.443 43.9069 268.456 45.9204 268.456 48.3812C268.456 50.8421 266.443 52.8555 263.982 52.8555Z" fill="#191919"/>
</g>
<defs>
<clipPath id="clip0_10_82">
<rect width="287" height="287" fill="white"/>
</clipPath>
</defs>
</svg>
