<svg width="61" height="61" viewBox="0 0 61 61" fill="none" xmlns="http://www.w3.org/2000/svg">
<g clip-path="url(#clip0_13_22)">
<path d="M30.5 61C47.3447 61 61 47.3447 61 30.5C61 13.6553 47.3447 0 30.5 0C13.6553 0 0 13.6553 0 30.5C0 47.3447 13.6553 61 30.5 61Z" fill="#B5F1F4"/>
<path d="M32.0693 60.9603C48.1846 60.1435 61 46.8185 61 30.5C61 29.8956 60.9805 29.2956 60.9458 28.6998L43.2844 10.9468L36.6618 24.8178L17.7311 46.6794L32.0693 60.9603Z" fill="#4CDBC4"/>
<path d="M41.4074 47.4444H19.5927C18.1301 47.4444 16.9444 46.2587 16.9444 44.7962V12.8149C16.9444 11.3523 18.1301 10.1666 19.5927 10.1666H41.4073C42.8699 10.1666 44.0556 11.3523 44.0556 12.8149V44.7962C44.0558 46.2587 42.87 47.4444 41.4074 47.4444Z" fill="#324A5E"/>
<path d="M41.4074 10.1666H30.4317V47.4444H41.4074C42.87 47.4444 44.0557 46.2587 44.0557 44.7962V12.8149C44.0558 11.3523 42.87 10.1666 41.4074 10.1666Z" fill="#2B3B4E"/>
<path d="M42.9588 12.5799H18.0392V43.0799H42.9588V12.5799Z" fill="#FFD15D"/>
<path d="M42.9608 12.5799H30.4322V43.0799H42.9608V12.5799Z" fill="#F9B54C"/>
<path d="M42.3612 40.6667C48.9119 40.6667 54.2223 35.3563 54.2223 28.8056C54.2223 22.2548 48.9119 16.9444 42.3612 16.9444C35.8104 16.9444 30.5 22.2548 30.5 28.8056C30.5 35.3563 35.8104 40.6667 42.3612 40.6667Z" fill="#C1321F"/>
<path d="M54.2222 28.8056C54.2222 22.255 48.9118 16.9444 42.361 16.9444V28.8056H54.2222Z" fill="#FC6F58"/>
</g>
<defs>
<clipPath id="clip0_13_22">
<rect width="61" height="61" fill="white"/>
</clipPath>
</defs>
</svg>
