<svg width="60" height="60" viewBox="0 0 60 60" fill="none" xmlns="http://www.w3.org/2000/svg">
<path fill-rule="evenodd" clip-rule="evenodd" d="M30 0L38.3333 7.56L49.58 7.12666L51.1033 18.28L60 25.1733L54 34.6933L56.3833 45.6967L45.6667 49.13L40.42 59.0867L30 54.83L19.58 59.0867L14.3333 49.13L3.61666 45.6967L6 34.6933L0 25.1733L8.89666 18.28L10.42 7.12666L21.6667 7.56L30 0ZM30 4.5L23.9033 10.03L22.8967 10.9433L21.5367 10.8933L13.31 10.5767L12.1967 18.73L12.0133 20.08L10.9367 20.91L4.43334 25.9533L8.82 32.92L9.54666 34.0667L9.25666 35.4L7.51666 43.4433L15.3533 45.9567L16.65 46.3733L17.2867 47.5767L21.12 54.8567L28.74 51.7467L30 51.23L31.26 51.7467L38.88 54.8567L42.7167 47.5767L43.35 46.3733L44.6467 45.9567L52.4833 43.4433L50.7433 35.4L50.4533 34.0667L51.18 32.92L55.57 25.9533L49.0633 20.91L47.9867 20.08L47.8033 18.73L46.6867 10.5767L38.4667 10.8933L37.1033 10.9433L36.0967 10.03L30 4.5ZM40.658 23.6713L42.6747 26.328L25.1247 39.648L17.1547 31.678L19.5113 29.3213L25.4247 35.2347L40.658 23.6713Z" fill="#34983E"/>
</svg>
