<svg width="59" height="60" viewBox="0 0 59 60" fill="none" xmlns="http://www.w3.org/2000/svg">
<path fill-rule="evenodd" clip-rule="evenodd" d="M23.8212 2.78359C18.7186 2.27098 15.3312 3.39402 11.889 6.03924C-0.0874935 15.2401 5.68946 42.9158 6.79425 45.3262C8.43251 48.9014 31.6199 58.9384 35.7234 59.3401C39.8282 59.7418 55.4908 18.7058 55.4908 18.7058C55.4908 18.7058 33.8164 3.78793 23.8212 2.78359Z" fill="#9A5F5F"/>
<path fill-rule="evenodd" clip-rule="evenodd" d="M48.9119 17.8649C30.4006 25.4862 34.4179 58.6871 35.7236 59.3406C37.0293 59.9928 53.5032 51.3776 54.1553 50.5232C54.8088 49.6702 66.5232 10.6141 48.9119 17.8649Z" fill="#C27D78"/>
<path fill-rule="evenodd" clip-rule="evenodd" d="M48.2321 18.1701C51.9573 16.4014 54.4016 16.7901 55.9825 18.3357L55.9903 18.3318C55.9903 18.3318 53.5447 14.167 49.0734 14.167C44.9503 14.167 32.6112 18.6057 30.6521 41.3588C30.6521 41.3588 19.2847 35.9848 15.3899 33.9253C11.4951 31.8644 4.03944 27.2809 4.03944 27.2809C4.03944 27.2809 2.47423 1.72875 23.8212 2.78397C23.8212 2.78397 20.6947 0.828752 17.6164 0.925274C-1.35664 1.51614 0.967706 29.857 0.967706 29.857C0.967706 29.857 7.4464 35.3809 16.0355 39.6005C25.4347 44.2179 36.2281 47.7488 36.2281 47.7488C34.7203 46.8448 35.1064 24.4035 48.2321 18.1701Z" fill="#F1A969"/>
<path fill-rule="evenodd" clip-rule="evenodd" d="M4.03952 27.2805L6.24126 26.4914C6.24126 26.4914 4.03952 7.70618 23.8213 2.78358C2.4743 1.72836 4.03952 27.2805 4.03952 27.2805Z" fill="#F7BF6D"/>
<path fill-rule="evenodd" clip-rule="evenodd" d="M30.6524 41.3586L30.9133 38.8921L6.24153 26.4916L4.03979 27.2808C4.03979 27.2808 11.4954 31.8642 15.3902 33.9251C19.2837 35.9847 30.6524 41.3586 30.6524 41.3586Z" fill="#FBDF89"/>
<path fill-rule="evenodd" clip-rule="evenodd" d="M52.792 34.0624C44.8799 38.6628 38.2407 40.9454 38.2407 40.9454C38.2407 40.9454 39.4394 42.088 40.4229 42.0906C43.2064 42.0959 54.3912 35.6732 54.8255 34.5606L52.792 34.0624Z" fill="#F7BF6D"/>
<path fill-rule="evenodd" clip-rule="evenodd" d="M53.4029 22.6836C53.4029 22.6836 54.4986 27.9284 52.7925 34.0627L54.826 34.561C54.826 34.561 57.2977 24.9936 53.4029 22.6836Z" fill="#F1A969"/>
<path fill-rule="evenodd" clip-rule="evenodd" d="M54.8254 34.5609C54.3558 35.3656 41.3488 42.7835 40.1175 42.0439C38.9436 41.3396 41.2314 26.9761 48.9167 23.0578C57.7432 18.5578 55.2949 33.7561 54.8254 34.5609ZM48.2319 18.1704C35.1062 24.4026 34.4697 46.7826 35.9762 47.6878C37.5571 48.6348 56.8706 38.3448 57.4745 37.313C58.0771 36.28 62.5471 11.3722 48.2319 18.1704Z" fill="#FBDF89"/>
<path fill-rule="evenodd" clip-rule="evenodd" d="M22.0835 42.3663L21.3074 49.8207C21.3074 49.8207 23.0056 49.3198 23.5769 48.6676C24.1469 48.0142 23.9395 43.1489 23.9395 43.1489L22.0835 42.3663Z" fill="#FBDF89"/>
<path fill-rule="evenodd" clip-rule="evenodd" d="M12.0962 37.5046C12.0962 37.5046 11.9175 44.5233 12.6206 45.6281C13.3236 46.7329 20.6045 50.3225 21.3075 49.8203C22.0106 49.3181 22.0836 42.3659 22.0836 42.3659L12.0962 37.5046Z" fill="#F1A969"/>
<path fill-rule="evenodd" clip-rule="evenodd" d="M17.8069 46.5044L17.5421 44.3887C17.7652 44.347 17.9778 44.2674 18.1434 44.1018C18.6365 43.6087 18.5699 42.74 17.9921 42.1622C17.4143 41.5857 16.5469 41.5179 16.0526 42.0109C15.5582 42.5053 15.626 43.374 16.2039 43.9505C16.2378 43.9844 16.2795 43.9987 16.3147 44.03L15.686 45.4153L17.8069 46.5044Z" fill="#4E433A"/>
<path fill-rule="evenodd" clip-rule="evenodd" d="M6.63912 20.0187L6.38086 21.6087L28.5952 31.72L6.63912 20.0187Z" fill="#7F5253"/>
<path fill-rule="evenodd" clip-rule="evenodd" d="M9.14146 13.1594L8.42798 14.529L30.9136 24.7629L9.14146 13.1594Z" fill="#7F5253"/>
<path fill-rule="evenodd" clip-rule="evenodd" d="M14.0846 7.38464L12.8416 8.45943L35.1785 18.6255L14.0846 7.38464Z" fill="#7F5253"/>
<path fill-rule="evenodd" clip-rule="evenodd" d="M20.1692 3.93677L18.5974 4.60981L40.5457 14.7955L20.1692 3.93677Z" fill="#7F5253"/>
</svg>
